<svg width="53" height="53" viewBox="0 0 53 53" fill="none" xmlns="http://www.w3.org/2000/svg">
<g clip-path="url(#clip0_211_105)">
<path d="M26.2668 52.52C11.8366 52.5674 0.0312141 40.7831 6.1799e-05 26.3C-0.0310905 11.8169 11.7194 0.0297932 26.2174 -4.6334e-06C40.7154 -0.0298025 52.5153 11.7512 52.5201 26.2512C52.5248 40.7377 40.7967 52.4726 26.2668 52.52ZM31.3284 22.7547V22.3375C31.3284 19.6286 31.3216 16.9197 31.3372 14.2108C31.3372 13.8986 31.2458 13.8492 30.9634 13.8533C29.7681 13.8689 28.5721 13.8668 27.3741 13.8533C27.1323 13.8533 27.0538 13.8946 27.0538 14.1594C27.0624 21.6847 27.0624 29.21 27.0538 36.7353C27.0538 36.9737 27.1161 37.0333 27.3518 37.0306C28.5708 37.0184 29.7898 37.015 31.0088 37.0306C31.2891 37.0346 31.3332 36.9418 31.3318 36.692C31.3237 34.0183 31.3318 31.3419 31.3257 28.6702C31.3244 28.0159 31.3717 27.3624 31.4672 26.7151C31.7544 24.7633 33.0093 23.6473 34.8933 23.6845C36.0344 23.7076 37.1038 24.3909 37.2406 25.7162C37.3088 26.3098 37.3463 26.9066 37.353 27.5041C37.353 30.5617 37.353 33.6194 37.3469 36.6764C37.3469 36.9473 37.3902 37.0394 37.6855 37.0346C38.8808 37.015 40.0768 37.017 41.2748 37.0346C41.5531 37.0346 41.6276 36.9737 41.6263 36.6879C41.615 33.6756 41.6132 30.6631 41.6208 27.6503C41.6312 26.7143 41.5848 25.7785 41.482 24.848C41.2944 23.2782 40.687 21.9359 39.2506 21.1531C37.2067 20.0431 35.133 20.0533 33.0966 21.2208C32.4391 21.6034 31.8912 22.1228 31.3284 22.7547ZM14.7554 22.7053C14.6599 22.5536 14.6978 22.4269 14.6978 22.3084C14.6978 19.611 14.6897 16.9143 14.7039 14.2176C14.7039 13.9081 14.6172 13.8526 14.3308 13.8567C13.1456 13.8729 11.9607 13.8729 10.776 13.8567C10.514 13.8567 10.4374 13.919 10.4422 14.1865C10.453 16.6922 10.4483 19.1979 10.4483 21.7036C10.4483 26.6799 10.4451 31.6561 10.4388 36.6324C10.4388 36.9893 10.5424 37.0516 10.8688 37.0461C12.0201 37.0258 13.1714 37.0279 14.3227 37.0461C14.6132 37.0509 14.6972 36.9879 14.6958 36.6818C14.6816 34.0752 14.6856 31.4672 14.6884 28.8619C14.6793 28.072 14.7421 27.283 14.8759 26.5045C15.2146 24.6807 16.4938 23.6324 18.319 23.6906C19.5698 23.7299 20.4495 24.5094 20.6161 25.7419C20.6632 26.0988 20.6901 26.4581 20.6967 26.818C20.7678 30.1012 20.7184 33.3871 20.7224 36.6689C20.7224 36.9737 20.805 37.04 21.0976 37.036C22.2712 37.0184 23.4449 37.0143 24.6192 37.036C24.9469 37.0428 24.9964 36.9317 24.995 36.6412C24.9855 33.6505 24.9855 30.6601 24.995 27.67C24.995 26.6304 24.9849 25.5936 24.8271 24.5649C24.5955 23.0581 23.9115 21.8398 22.5367 21.0881C21.4482 20.5 20.2073 20.2551 18.9771 20.3856C17.7469 20.516 16.5849 21.0156 15.6439 21.8188C15.326 22.0904 15.0289 22.3856 14.7554 22.7019V22.7053Z" fill="#7A8F2D"/>
<path d="M31.3286 22.7548C31.8914 22.1263 32.4366 21.6035 33.0976 21.2249C35.134 20.056 37.2076 20.0459 39.2515 21.1572C40.6879 21.9367 41.2953 23.2823 41.4829 24.8521C41.5857 25.7826 41.6321 26.7184 41.6218 27.6545C41.6163 30.6668 41.6181 33.6793 41.6272 36.692C41.6272 36.9778 41.554 37.0421 41.2757 37.0388C40.0797 37.0218 38.8837 37.0198 37.6864 37.0388C37.3898 37.0435 37.3478 36.9487 37.3478 36.6805C37.3573 33.6235 37.3539 30.5659 37.3539 27.5082C37.3472 26.9107 37.3097 26.3139 37.2415 25.7203C37.106 24.3977 36.0353 23.7144 34.8942 23.6887C33.0102 23.6514 31.7553 24.7675 31.4682 26.7192C31.3726 27.3665 31.3253 28.02 31.3266 28.6744C31.33 31.348 31.3266 34.0244 31.3327 36.6961C31.3327 36.9466 31.29 37.0394 31.0097 37.0347C29.7907 37.0171 28.5717 37.0205 27.3527 37.0347C27.117 37.0347 27.0547 36.9778 27.0547 36.7394C27.0615 29.2141 27.0615 21.6888 27.0547 14.1635C27.0547 13.8987 27.1332 13.8547 27.375 13.8574C28.571 13.8696 29.767 13.8716 30.9643 13.8574C31.2467 13.8533 31.3395 13.9028 31.3381 14.215C31.3225 16.9239 31.3293 19.6328 31.3293 22.3417L31.3286 22.7548Z" fill="#FDFDFD"/>
<path d="M14.7555 22.7019C15.028 22.3867 15.3239 22.0924 15.6406 21.8215C16.5816 21.0181 17.7436 20.5183 18.974 20.3877C20.2044 20.2572 21.4455 20.5021 22.5341 21.0901C23.9088 21.8419 24.5928 23.0602 24.8244 24.567C24.9822 25.5957 24.9958 26.6325 24.9924 27.6721C24.9806 30.6627 24.9806 33.6531 24.9924 36.6432C24.9924 36.9338 24.9443 37.0448 24.6165 37.0381C23.4436 37.015 22.2699 37.0191 21.095 37.0381C20.8024 37.0421 20.7205 36.9758 20.7198 36.671C20.7157 33.3872 20.7652 30.1019 20.6941 26.8201C20.6882 26.457 20.6618 26.0946 20.6148 25.7345C20.4482 24.502 19.5685 23.7225 18.3177 23.6832C16.4892 23.625 15.2126 24.6733 14.8747 26.4971C14.7408 27.2756 14.6781 28.0646 14.6871 28.8545C14.6871 31.4611 14.6803 34.0691 14.6945 36.6744C14.6945 36.9805 14.6119 37.0435 14.3214 37.0387C13.1701 37.0211 12.0188 37.0191 10.8675 37.0387C10.5411 37.0442 10.4368 36.9819 10.4375 36.625C10.4515 31.6487 10.4547 26.6725 10.447 21.6962C10.447 19.1905 10.4517 16.6848 10.4409 14.1791C10.4409 13.9116 10.5127 13.8459 10.7748 13.8493C11.9599 13.8633 13.1448 13.8633 14.3295 13.8493C14.616 13.8452 14.704 13.9007 14.7027 14.2102C14.6884 16.9069 14.6939 19.6036 14.6966 22.301C14.6959 22.4236 14.66 22.5516 14.7555 22.7019Z" fill="#FDFDFD"/>
</g>
<defs>
<clipPath id="clip0_211_105">
<rect width="52.52" height="52.52" fill="white"/>
</clipPath>
</defs>
</svg>
