<svg width="52" height="52" viewBox="0 0 52 52" fill="none" xmlns="http://www.w3.org/2000/svg">
<path fill-rule="evenodd" clip-rule="evenodd" d="M18.0267 0H33.9733C48.5333 0 52 3.46667 52 18.0267V33.9733C52 48.5333 48.5333 52 33.9733 52H18.0267C3.46667 52 0 48.5333 0 33.9733V18.0267C0 3.46667 3.46667 0 18.0267 0Z" fill="#7A8F2D"/>
<path fill-rule="evenodd" clip-rule="evenodd" d="M42.584 17.9146C42.8249 17.1112 42.584 16.5208 41.4374 16.5208H37.6457C36.6816 16.5208 36.2372 17.0308 35.9961 17.5931C35.9961 17.5931 34.0679 22.2931 31.3364 25.346C30.4526 26.2297 30.0509 26.5109 29.5689 26.5109C29.3279 26.5109 28.979 26.2297 28.979 25.4263V17.9146C28.979 16.9505 28.6992 16.5208 27.8957 16.5208H21.9374C21.3349 16.5208 20.9726 16.9683 20.9726 17.3923C20.9726 18.3063 22.3383 18.5171 22.479 21.088V26.6716C22.479 27.8958 22.258 28.1178 21.7759 28.1178C20.4905 28.1178 17.3638 23.3968 15.5094 17.9949C15.1459 16.9449 14.7814 16.5208 13.8124 16.5208H10.0207C8.93738 16.5208 8.7207 17.0308 8.7207 17.5931C8.7207 18.5974 10.0062 23.5785 14.706 30.1664C17.8392 34.6654 22.2537 37.1041 26.2707 37.1041C28.6809 37.1041 28.979 36.5625 28.979 35.6295V32.2291C28.979 31.1458 29.2074 30.9296 29.9706 30.9296C30.533 30.9296 31.497 31.2108 33.7466 33.38C36.3175 35.9508 36.7413 37.1041 38.1874 37.1041H41.979C43.0624 37.1041 43.604 36.5625 43.2916 35.4935C42.9496 34.4282 41.7222 32.8824 40.0935 31.0501C39.2097 30.0057 37.8841 28.881 37.4824 28.3185C36.92 27.5955 37.0807 27.2741 37.4824 26.6314C37.4824 26.6314 42.102 20.1239 42.584 17.9146Z" fill="#FDFDFD"/>
</svg>
